<svg xmlns="http://www.w3.org/2000/svg" width="28" height="28" viewBox="0 0 28 28"><path fill-rule="evenodd" clip-rule="evenodd" d="M5.5 5.75A.75.75 0 016.25 5C15.5 5 23 12.5 23 21.75a.75.75 0 01-1.5 0c0-8.422-6.828-15.25-15.25-15.25a.75.75 0 01-.75-.75zm0 6a.75.75 0 01.75-.75C12.187 11 17 15.813 17 21.75a.75.75 0 01-1.5 0 9.25 9.25 0 00-9.25-9.25.75.75 0 01-.75-.75zm0 6a.75.75 0 01.75-.75A4.75 4.75 0 0111 21.75a.75.75 0 01-1.5 0 3.25 3.25 0 00-3.25-3.25.75.75 0 01-.75-.75z" fill="#bbb"></path></svg>