
<svg width="24" height="24" viewBox="0 0 24 24" fill="none" xmlns="http://www.w3.org/2000/svg">
<path opacity="0.24" d="M14.7813 9.68221L12 12L14.7814 14.3178L14.7814 14.3178C17.1155 16.2629 18.2826 17.2355 18.5542 18.0343C19.0061 19.3635 18.4757 20.8284 17.2777 21.5602C16.5576 22 15.0384 22 12 22C8.96159 22 7.44239 22 6.72234 21.5602C5.52426 20.8284 4.99392 19.3635 5.44581 18.0343C5.7174 17.2355 6.88448 16.2629 9.21865 14.3178L12 12L9.21865 9.68221C6.88449 7.73707 5.7174 6.7645 5.44581 5.96565C4.99392 4.63647 5.52426 3.17164 6.72234 2.43983C7.44239 2 8.96159 2 12 2C15.0384 2 16.5576 2 17.2777 2.43983C18.4757 3.17164 19.0061 4.63647 18.5542 5.96565C18.2826 6.7645 17.1155 7.73707 14.7813 9.68221Z" fill="#fff"/>
<path d="M15 14.5L15.6 15V15C17.2605 16.3838 18.0908 17.0757 18.3678 17.6012C19.1922 19.1654 18.4919 21.0997 16.8572 21.7736C16.3079 22 15.2272 22 13.0656 22H12C8.96159 22 7.44239 22 6.72234 21.5602C5.52426 20.8284 4.99392 19.3635 5.44581 18.0343C5.7174 17.2355 6.88448 16.2629 9.21865 14.3178L14.7813 9.68221C17.1155 7.73707 18.2826 6.7645 18.5542 5.96565C19.0061 4.63647 18.4757 3.17164 17.2777 2.43983C16.5576 2 15.0384 2 12 2H10.9344C8.77283 2 7.69206 2 7.14281 2.22641C5.5081 2.90028 4.80779 4.83458 5.63221 6.39878C5.90921 6.92434 6.73947 7.61623 8.4 9V9L9 9.5" stroke="#fff" stroke-width="1.5" stroke-linecap="round" stroke-linejoin="round"/>
</svg>
