<svg width="65" height="81" viewBox="0 0 65 81" fill="none" xmlns="http://www.w3.org/2000/svg">
<path d="M31.3156 0.017348C23.9556 0.267348 17.2356 2.84735 11.5056 7.62235C10.5956 8.37735 8.71059 10.2373 7.91059 11.1623C7.04559 12.1623 5.98559 13.5523 5.39559 14.4673L5.18059 14.8073H3.29559C1.19559 14.8073 1.08559 14.8223 0.680588 15.1273C0.540588 15.2323 0.400588 15.4123 0.290588 15.6123C0.140588 15.8923 0.120588 15.9723 0.120588 16.3073C0.125588 16.7523 0.270588 17.0873 0.595588 17.4073C0.955588 17.7573 1.18559 17.8073 2.39059 17.8073H3.43059L3.04059 18.6423C1.74059 21.4423 0.870588 24.2673 0.395588 27.2573C0.305588 27.8373 0.265588 28.1223 0.140588 29.1823C0.115588 29.4023 0.0655885 30.2023 0.0305885 30.9673C-0.139412 34.8923 0.400589 38.8223 1.61559 42.4823C3.76559 48.9373 7.85059 54.5123 13.3906 58.5573C17.6756 61.6873 22.8806 63.7523 28.1656 64.4323C28.7906 64.5123 30.3156 64.6573 30.5506 64.6573H30.6906L30.7006 71.9223L30.7156 79.1823L30.8556 79.4573C31.2656 80.2573 32.1556 80.6723 32.9656 80.4323C33.3206 80.3323 33.7056 80.0823 33.9206 79.8223C34.0056 79.7173 35.5456 77.8223 37.3406 75.6073C39.1406 73.3923 41.9256 69.9623 43.5356 67.9823C45.1456 66.0023 46.9456 63.7873 47.5356 63.0573C48.1256 62.3273 48.7706 61.5373 48.9606 61.3023C49.1556 61.0673 49.6956 60.4023 50.1606 59.8273C51.0006 58.7973 51.0206 58.7773 51.7606 58.2173C56.2556 54.8573 59.7906 50.3873 62.0156 45.2573C63.5206 41.7823 64.3806 38.2173 64.6406 34.3673C64.7406 32.8773 64.6806 30.0923 64.5206 28.8823C64.5056 28.7723 64.4706 28.4773 64.4356 28.2323C64.2506 26.7223 63.7656 24.3773 63.3956 23.2273C63.3456 23.0673 63.2406 22.7423 63.1656 22.5073C62.9206 21.7123 62.3806 20.2873 62.0106 19.4423C60.1906 15.2973 57.5706 11.6273 54.2156 8.53735C50.4806 5.09735 46.0256 2.60735 41.1056 1.20735C37.9956 0.322348 34.5806 -0.092652 31.3156 0.017348ZM33.8656 3.68235C36.5306 3.78235 39.5956 4.40735 42.2906 5.40735C45.5006 6.59735 48.4756 8.35735 51.0906 10.6123C52.4106 11.7523 54.1056 13.5373 55.0556 14.7923C55.0906 14.8423 54.8906 14.8573 54.0856 14.8573L53.0656 14.8523L52.6156 14.3223C51.9406 13.5273 50.5556 12.1473 49.7906 11.5073C49.6456 11.3823 49.5006 11.2573 49.4706 11.2323C49.2756 11.0573 48.1606 10.1873 47.9106 10.0223C47.8556 9.98735 47.5906 9.80235 47.3206 9.60735C47.0456 9.41735 46.8056 9.25735 46.7856 9.25735C46.7656 9.25735 46.7156 9.22735 46.6806 9.18735C46.6406 9.15235 46.5206 9.07235 46.4106 9.01235C46.3056 8.95235 46.1056 8.83235 45.9656 8.74735C45.1756 8.25235 43.6856 7.49735 42.6256 7.05735C42.2906 6.91735 41.9706 6.78235 41.9156 6.75735C41.7406 6.67235 40.3806 6.20735 39.8656 6.04735C38.1156 5.51735 35.9656 5.12735 33.8906 4.95735C33.1706 4.89735 30.6906 4.89735 29.9906 4.95735C29.2606 5.01735 27.7406 5.19735 27.4256 5.26235C27.2856 5.29235 26.8506 5.37735 26.4656 5.45735C25.1506 5.71735 23.7056 6.13235 22.4656 6.60235C22.2456 6.68235 21.9156 6.80735 21.7306 6.87735C21.5456 6.94735 21.3556 7.02735 21.3056 7.05235C21.2556 7.08235 20.9556 7.21735 20.6406 7.35735C20.3256 7.49735 20.0306 7.62735 19.9906 7.65235C19.9506 7.67235 19.6456 7.83235 19.3156 8.00735C18.6706 8.34735 18.5806 8.39735 18.1156 8.67235C17.9506 8.77235 17.7506 8.89235 17.6656 8.93735C17.5106 9.02735 16.6956 9.56735 16.2706 9.86235C16.1406 9.95735 15.9656 10.0773 15.8856 10.1323C14.4356 11.1523 12.5056 12.9473 11.1406 14.5473L10.9156 14.8123L10.2756 14.7973L9.63559 14.7823L10.0106 14.3173C10.7206 13.4223 11.9706 12.0873 12.8956 11.2273C14.1256 10.0823 16.0756 8.61235 17.4056 7.82735C21.3106 5.51235 25.0306 4.26235 29.4406 3.78235C30.2606 3.69235 31.9906 3.61235 32.6656 3.63735C32.9156 3.64735 33.4556 3.66735 33.8656 3.68235ZM8.94059 17.9923C8.57059 18.2923 7.48559 19.4023 7.12059 19.8573C6.59059 20.5223 6.07559 21.3223 5.64059 22.1623C5.42059 22.5873 5.24059 22.9073 5.24059 22.8823C5.24059 22.8023 5.74059 21.5123 6.04059 20.8323C6.44059 19.9123 7.13059 18.5573 7.52559 17.9173C7.59059 17.8123 7.61559 17.8073 8.38059 17.8073H9.16559L8.94059 17.9923ZM19.2406 17.9323C25.0906 18.8723 29.0106 24.3223 28.0156 30.1423C27.6556 32.2373 26.5906 34.2623 25.0456 35.7923C23.4356 37.3873 21.5256 38.3473 19.1806 38.7423C18.4656 38.8623 16.9156 38.8623 16.1656 38.7423C13.8156 38.3623 11.7706 37.3123 10.1806 35.6623C8.62059 34.0523 7.72559 32.2823 7.31059 29.9823C7.18059 29.2823 7.18059 27.3923 7.30559 26.7073C7.45059 25.9223 7.62559 25.2373 7.82059 24.7223C9.24559 20.9023 12.6906 18.2473 16.7206 17.8573C17.3156 17.7973 18.6556 17.8423 19.2406 17.9323ZM43.4156 17.9773C45.7006 18.3123 47.7306 19.3323 49.3706 20.9773C50.9456 22.5623 51.9056 24.4173 52.3156 26.6823C52.4256 27.2823 52.4706 28.8523 52.3956 29.4873C52.0656 32.2823 50.7706 34.7023 48.6406 36.4773C45.8806 38.7823 42.0756 39.5073 38.6706 38.3823C37.6956 38.0573 36.9956 37.7173 36.1156 37.1323C35.1406 36.4873 34.6906 36.0423 34.1706 35.2323C34.0656 35.0673 33.9356 34.8723 33.8856 34.7973C33.7456 34.5973 33.2806 33.6773 33.1406 33.3323C33.0756 33.1673 33.0106 33.0073 32.9906 32.9823C32.9056 32.8573 32.5806 31.8223 32.4456 31.2573C32.2056 30.2723 32.1256 29.5223 32.1256 28.3323C32.1256 26.7523 32.3306 25.4873 32.7956 24.1573C33.2156 22.9673 34.0206 21.4773 34.5556 20.9123C34.9056 20.5473 35.6356 19.9573 36.1906 19.5973C37.7056 18.6073 39.2406 18.0873 41.2156 17.8873C41.5856 17.8523 42.9106 17.9073 43.4156 17.9773ZM52.0956 18.1623C52.7906 18.6723 53.6206 19.4323 54.2156 20.1123C54.4256 20.3523 55.0406 21.1673 55.0406 21.2073C55.0406 21.2223 55.0806 21.2823 55.1306 21.3373C55.2556 21.4773 55.5456 21.9573 55.8456 22.5323C57.0306 24.8073 57.4706 27.4173 57.1156 30.1173C56.7406 32.9923 55.1806 35.8573 52.9456 37.7773C52.4706 38.1873 51.6656 38.8073 51.6106 38.8073C51.5956 38.8073 51.5106 38.8573 51.4256 38.9173C51.2256 39.0623 50.4956 39.4773 50.1706 39.6273C49.6356 39.8773 49.3606 39.9973 49.1656 40.0573C49.0556 40.0923 48.9456 40.1373 48.9156 40.1573C48.8906 40.1823 48.7706 40.2223 48.6506 40.2573C48.5306 40.2873 48.3956 40.3273 48.3506 40.3423C48.3056 40.3573 48.4706 40.2473 48.7156 40.0973C50.5856 38.9773 52.0606 37.5773 53.2556 35.7973C53.9006 34.8273 54.6206 33.2523 54.9606 32.0573C55.5256 30.0573 55.6056 27.6273 55.1706 25.5673C54.7356 23.5423 53.7656 21.5123 52.4256 19.8573C52.0256 19.3623 51.2156 18.5373 50.6706 18.0673L50.4256 17.8573H51.0506H51.6706L52.0956 18.1623ZM57.3556 18.2423C57.6756 18.8023 58.4406 20.3373 58.7156 20.9823C59.8156 23.5623 60.4956 26.0923 60.8656 28.9573C61.1356 31.0723 61.0906 34.3773 60.7656 36.4823C60.2756 39.6723 59.4556 42.2873 58.0856 45.0573C56.7606 47.7323 55.2556 49.8923 53.1206 52.1723C52.3756 52.9673 50.3156 54.8423 50.2506 54.7823C50.2406 54.7723 50.4806 54.4773 50.7806 54.1223C54.2106 50.1273 55.2706 48.8823 55.2356 48.8673C55.2106 48.8573 54.9756 48.9173 54.7056 48.9973C54.4356 49.0823 54.1056 49.1823 53.9656 49.2223C53.8306 49.2673 53.6106 49.3323 53.4806 49.3773C53.3456 49.4173 53.2406 49.4323 53.2406 49.4073C53.2406 49.3873 53.3206 49.2673 53.4206 49.1473C53.6856 48.8223 53.6906 48.8173 54.0406 48.3323C55.2506 46.6623 56.4156 44.6273 57.0706 43.0323C57.1156 42.9223 57.1806 42.7623 57.2156 42.6823C57.2906 42.5173 57.5406 41.8673 57.7806 41.2323C57.8606 41.0123 57.9556 40.7173 57.9906 40.5823C58.0256 40.4423 58.0706 40.3073 58.0906 40.2823C58.1106 40.2523 58.1406 40.1623 58.1606 40.0823C58.1806 39.9973 58.2706 39.6523 58.3656 39.3073C58.9156 37.2573 59.1506 35.6823 59.2906 33.0973C59.3956 31.0823 59.0906 28.0873 58.5506 25.8573C58.3306 24.9423 57.9156 23.5173 57.7906 23.2323C57.7656 23.1773 57.6406 22.8523 57.5156 22.5073C57.3906 22.1623 57.2556 21.8123 57.2156 21.7323C57.1756 21.6473 56.9756 21.2123 56.7706 20.7573C56.4556 20.0573 56.2306 19.6223 55.5456 18.3823C55.5006 18.2973 55.4506 18.2223 55.4356 18.2073C55.4206 18.1923 55.3656 18.1073 55.3206 18.0173L55.2356 17.8573H56.1856H57.1306L57.3556 18.2423ZM5.19559 23.0923C5.13559 23.1923 5.12559 23.1623 5.17059 23.0323C5.19059 22.9873 5.21559 22.9623 5.22559 22.9773C5.24059 22.9873 5.22559 23.0423 5.19559 23.0923ZM4.18559 27.2123C4.11559 27.9723 4.15559 29.5323 4.26559 30.2573C4.71559 33.2023 5.99559 35.7573 8.06559 37.8373C8.67559 38.4473 8.95559 38.6973 9.66559 39.2473C9.98559 39.4973 8.98559 38.9123 8.38059 38.4973C8.06559 38.2823 7.06059 37.4273 6.76559 37.1273C6.21559 36.5673 5.57059 35.7773 5.23559 35.2573C5.14059 35.1073 4.98559 34.8723 4.90059 34.7323L4.73559 34.4873L4.76559 34.7823C4.94059 36.4673 5.22059 37.9823 5.65559 39.5823C5.78559 40.0623 6.06559 40.9673 6.14059 41.1323C6.16559 41.1873 6.23059 41.3773 6.29059 41.5573C6.35059 41.7373 6.42559 41.9473 6.46559 42.0323C6.59559 42.3323 6.89059 43.0523 6.89059 43.0773C6.89059 43.1123 7.56559 44.5423 7.63559 44.6573C7.66059 44.6973 7.78559 44.9323 7.91559 45.1773C8.21559 45.7423 9.20559 47.3773 9.37559 47.5823C9.40059 47.6073 9.49059 47.7373 9.57559 47.8673C9.79559 48.1923 9.96059 48.4273 9.99559 48.4573C10.0106 48.4723 10.1756 48.6823 10.3656 48.9323C11.5856 50.5323 13.6206 52.5823 15.1406 53.7373C15.3206 53.8723 15.4756 53.9923 15.4906 54.0073C15.5456 54.0673 16.1056 54.4673 16.4906 54.7273C16.6106 54.8023 16.7306 54.8923 16.7606 54.9173C16.8206 54.9673 17.3506 55.3073 17.6856 55.5073C17.8006 55.5773 17.9706 55.6773 18.0556 55.7323C18.4056 55.9573 19.6506 56.6173 20.2656 56.9073C20.6256 57.0773 20.9706 57.2423 21.0406 57.2773C21.1106 57.3173 21.2556 57.3723 21.3656 57.4073C21.4756 57.4423 21.6206 57.5023 21.6906 57.5373C21.9306 57.6673 23.3456 58.1723 23.8656 58.3123C24.0606 58.3673 24.2606 58.4323 24.3156 58.4573C24.5756 58.5873 26.6006 59.0323 27.6156 59.1873C28.0556 59.2523 28.5506 59.3273 28.7156 59.3573C30.1456 59.5923 34.0456 59.5773 35.4256 59.3273L35.5906 59.2973L35.6006 65.5573L35.6156 71.8173L36.3356 70.9773C36.7306 70.5123 37.0456 70.1573 37.0356 70.1923C37.0056 70.2823 34.3706 73.5073 34.3256 73.5073C34.3056 73.5073 34.2906 71.0373 34.2906 68.0123C34.2956 62.5423 34.2956 62.5223 34.1906 62.2423C33.9906 61.7073 33.4356 61.2373 32.8656 61.1173C32.7306 61.0873 32.0856 61.0523 31.4406 61.0373C29.2506 60.9873 27.0706 60.6723 24.9656 60.1073C20.8006 58.9823 17.0106 56.9923 13.7056 54.1873C12.8656 53.4723 11.1556 51.7573 10.4406 50.9073C6.65559 46.4173 4.34559 41.0023 3.77059 35.2573C3.68059 34.3773 3.60059 32.4573 3.62559 31.7823C3.68559 30.1323 3.82559 28.7073 4.04559 27.4623C4.10059 27.1423 4.16059 26.8073 4.17559 26.7173C4.23559 26.3673 4.24059 26.6223 4.18559 27.2123Z" fill="#fff"/>
<path d="M17.1656 22.1324C17.1406 22.1424 16.9506 22.1774 16.7506 22.2074L16.3856 22.2674L16.7306 22.6274C17.1156 23.0274 17.3806 23.4674 17.5506 23.9824C17.7156 24.4924 17.7156 25.4824 17.5506 25.9824C17.3606 26.5524 17.1106 26.9474 16.6656 27.3924C16.0056 28.0424 15.2506 28.3574 14.3106 28.3574C13.4856 28.3574 12.7256 28.0824 12.0906 27.5474L11.7506 27.2674L11.7206 27.4924C11.6656 27.9124 11.6906 28.8874 11.7706 29.3574C12.2056 31.8724 14.1056 33.8324 16.6406 34.3674C17.3006 34.5074 18.3806 34.5074 19.0406 34.3674C21.9656 33.7474 23.9906 31.2674 23.9906 28.3074C23.9906 24.8474 21.2356 22.0874 17.7956 22.1124C17.4756 22.1124 17.1956 22.1224 17.1656 22.1324Z" fill="#fff"/>
<path d="M41.3156 22.1323C41.2906 22.1423 41.1006 22.1773 40.8956 22.2123L40.5206 22.2673L40.7506 22.4773C41.2256 22.9073 41.5956 23.5323 41.7656 24.1823C41.8606 24.5673 41.8656 25.3973 41.7656 25.7823C41.5306 26.7123 40.8156 27.6023 39.9906 27.9973C39.4506 28.2573 39.0356 28.3573 38.4606 28.3573C37.5806 28.3573 36.7756 28.0423 36.1256 27.4423C36.0256 27.3473 35.9256 27.2873 35.9106 27.3123C35.8956 27.3373 35.8706 27.6473 35.8556 27.9973C35.7206 31.0973 37.8906 33.7973 40.9606 34.3373C41.5656 34.4423 42.5956 34.4273 43.1956 34.3073C45.6656 33.8023 47.5656 31.8973 48.0456 29.4423C48.1656 28.8273 48.1756 27.7423 48.0656 27.1623C47.5006 24.1973 44.9456 22.0923 41.9456 22.1123C41.6256 22.1123 41.3456 22.1223 41.3156 22.1323Z" fill="#fff"/>
</svg>
