<svg xmlns="http://www.w3.org/2000/svg" width="28" height="28" viewBox="0 0 28 28"><path fill-rule="evenodd" clip-rule="evenodd" d="M14 5.25a3.016 3.016 0 100 6.033 3.016 3.016 0 000-6.033zM9.484 8.266a4.516 4.516 0 119.032 0 4.516 4.516 0 01-9.032 0zM14 15.75c-2.572 0-4.927.92-6.758 2.448a1.342 1.342 0 000 2.078A10.503 10.503 0 0014 22.724c2.572 0 4.927-.92 6.758-2.448a1.342 1.342 0 000-2.078A10.503 10.503 0 0014 15.75zm-7.719 1.297A12.003 12.003 0 0114 14.25c2.936 0 5.629 1.051 7.72 2.797a2.842 2.842 0 010 4.38A12.003 12.003 0 0114 24.224a12.003 12.003 0 01-7.72-2.797 2.842 2.842 0 01.001-4.38z" fill="#bbb"></path></svg>