<svg width="140" height="140" viewBox="0 0 140 140" fill="none" xmlns="http://www.w3.org/2000/svg">
<rect width="140" height="140" fill="white"/>
<mask id="path-1-outside-1_739_36" maskUnits="userSpaceOnUse" x="45.8185" y="39.2882" width="48.6866" height="55.2395" fill="black">
<rect fill="white" x="45.8185" y="39.2882" width="48.6866" height="55.2395"/>
<path d="M72.9075 92.5261C68.3668 92.295 64.1968 91.0901 60.3975 88.9112C56.6015 86.6685 53.6172 83.6025 51.4448 79.7132C49.2756 75.76 48.3274 71.1325 48.6 65.8305C48.8759 60.4646 50.2939 55.9575 52.854 52.3091C55.4141 48.6606 58.6956 45.9456 62.6986 44.1639C66.7049 42.3183 70.9783 41.5111 75.519 41.7422C79.2922 41.9342 82.3997 42.6048 84.8413 43.7538C87.3501 44.8422 89.376 45.97 90.919 47.1373C92.1554 48.0329 92.7374 49.1833 92.6652 50.5887C92.6192 51.483 92.2231 52.3274 91.4769 53.1221C90.7307 53.9167 89.846 54.288 88.8227 54.2359C88.1193 54.2001 87.4256 53.9726 86.7418 53.5535C85.1251 52.5746 83.532 51.757 81.9628 51.1007C80.3935 50.4444 78.3618 50.0528 75.8676 49.9258C70.3037 49.6426 65.8727 51.0183 62.5748 54.0527C59.3408 57.0905 57.5924 61.1645 57.3296 66.2748C57.0668 71.3851 58.3882 75.6154 61.2937 78.9656C64.2631 82.3191 68.5298 84.1374 74.0938 84.4206C76.5879 84.5475 78.6492 84.3642 80.2776 83.8707C81.9093 83.3133 83.5779 82.6617 85.2833 81.9159C86.0065 81.5684 86.7199 81.4126 87.4234 81.4484C88.4466 81.5005 89.2886 81.9596 89.9494 82.8259C90.6102 83.6921 90.9176 84.5724 90.8716 85.4667C90.7993 86.872 90.1023 87.9574 88.7805 88.7227C87.1292 89.6634 84.9981 90.5797 82.3874 91.4715C79.8407 92.3666 76.6807 92.7182 72.9075 92.5261Z"/>
</mask>
<path d="M72.9075 92.5261C68.3668 92.295 64.1968 91.0901 60.3975 88.9112C56.6015 86.6685 53.6172 83.6025 51.4448 79.7132C49.2756 75.76 48.3274 71.1325 48.6 65.8305C48.8759 60.4646 50.2939 55.9575 52.854 52.3091C55.4141 48.6606 58.6956 45.9456 62.6986 44.1639C66.7049 42.3183 70.9783 41.5111 75.519 41.7422C79.2922 41.9342 82.3997 42.6048 84.8413 43.7538C87.3501 44.8422 89.376 45.97 90.919 47.1373C92.1554 48.0329 92.7374 49.1833 92.6652 50.5887C92.6192 51.483 92.2231 52.3274 91.4769 53.1221C90.7307 53.9167 89.846 54.288 88.8227 54.2359C88.1193 54.2001 87.4256 53.9726 86.7418 53.5535C85.1251 52.5746 83.532 51.757 81.9628 51.1007C80.3935 50.4444 78.3618 50.0528 75.8676 49.9258C70.3037 49.6426 65.8727 51.0183 62.5748 54.0527C59.3408 57.0905 57.5924 61.1645 57.3296 66.2748C57.0668 71.3851 58.3882 75.6154 61.2937 78.9656C64.2631 82.3191 68.5298 84.1374 74.0938 84.4206C76.5879 84.5475 78.6492 84.3642 80.2776 83.8707C81.9093 83.3133 83.5779 82.6617 85.2833 81.9159C86.0065 81.5684 86.7199 81.4126 87.4234 81.4484C88.4466 81.5005 89.2886 81.9596 89.9494 82.8259C90.6102 83.6921 90.9176 84.5724 90.8716 85.4667C90.7993 86.872 90.1023 87.9574 88.7805 88.7227C87.1292 89.6634 84.9981 90.5797 82.3874 91.4715C79.8407 92.3666 76.6807 92.7182 72.9075 92.5261Z" fill="#582FFF"/>
<path d="M60.3975 88.9112L59.8878 89.7716L59.899 89.778L60.3975 88.9112ZM51.4448 79.7132L50.5673 80.1939L50.571 80.2004L51.4448 79.7132ZM52.854 52.3091L52.0347 51.7357L52.0347 51.7357L52.854 52.3091ZM62.6986 44.1639L63.1056 45.0768L63.1174 45.0714L62.6986 44.1639ZM84.8413 43.7538L84.4145 44.6579L84.4283 44.6644L84.4423 44.6705L84.8413 43.7538ZM90.919 47.1373L90.3147 47.9341L90.323 47.9404L90.3314 47.9465L90.919 47.1373ZM91.4769 53.1221L90.7472 52.4385L91.4769 53.1221ZM86.7418 53.5535L87.2654 52.7016L87.2608 52.6988L86.7418 53.5535ZM62.5748 54.0527L61.897 53.3178L61.8895 53.3248L62.5748 54.0527ZM61.2937 78.9656L60.5372 79.6202L60.5441 79.6279L61.2937 78.9656ZM80.2776 83.8707L80.5678 84.827L80.5845 84.822L80.6011 84.8163L80.2776 83.8707ZM85.2833 81.9159L85.6843 82.8314L85.7007 82.8242L85.7168 82.8165L85.2833 81.9159ZM89.9494 82.8259L89.1534 83.4318L89.1534 83.4318L89.9494 82.8259ZM88.7805 88.7227L89.276 89.5908L89.2821 89.5873L88.7805 88.7227ZM82.3874 91.4715L82.064 90.5259L82.0556 90.5288L82.3874 91.4715ZM72.9588 91.528C68.5694 91.3046 64.5535 90.142 60.896 88.0445L59.899 89.778C63.8402 92.0381 68.1643 93.2854 72.8562 93.5242L72.9588 91.528ZM60.9072 88.051C57.2652 85.8993 54.4059 82.9628 52.3186 79.226L50.571 80.2004C52.8286 84.2423 55.9378 87.4378 59.8879 89.7715L60.9072 88.051ZM52.3223 79.2326C50.257 75.4688 49.3344 71.0316 49.5993 65.8814L47.6007 65.7796C47.3203 71.2334 48.2942 76.0513 50.5673 80.1938L52.3223 79.2326ZM49.5993 65.8814C49.8676 60.6641 51.2416 56.348 53.6733 52.8824L52.0347 51.7357C49.3463 55.5671 47.8843 60.2651 47.6007 65.7796L49.5993 65.8814ZM53.6733 52.8824C56.1312 49.3796 59.2713 46.7833 63.1056 45.0767L62.2916 43.251C58.1199 45.1078 54.697 47.9417 52.0347 51.7357L53.6733 52.8824ZM63.1174 45.0714C66.9719 43.2957 71.0836 42.5172 75.4677 42.7403L75.5703 40.7441C70.8731 40.505 66.4378 41.3409 62.2798 43.2564L63.1174 45.0714ZM75.4677 42.7403C79.1591 42.9282 82.1277 43.5817 84.4145 44.6579L85.268 42.8497C82.6716 41.6278 79.4254 40.9403 75.5703 40.7441L75.4677 42.7403ZM84.4423 44.6705C86.9056 45.7391 88.8552 46.83 90.3147 47.9341L91.5234 46.3406C89.8969 45.1101 87.7946 43.9452 85.2402 42.8371L84.4423 44.6705ZM90.3314 47.9465C91.3211 48.6634 91.7191 49.5028 91.6659 50.5378L93.6644 50.6395C93.7557 48.8638 92.9896 47.4024 91.5066 46.3282L90.3314 47.9465ZM91.6659 50.5378C91.6345 51.1479 91.3679 51.7775 90.7472 52.4385L92.2066 53.8056C93.0782 52.8773 93.6038 51.8181 93.6644 50.6395L91.6659 50.5378ZM90.7472 52.4385C90.1876 53.0344 89.5825 53.2738 88.8741 53.2378L88.7714 55.234C90.1095 55.3021 91.2738 54.799 92.2066 53.8056L90.7472 52.4385ZM88.8741 53.2378C88.3598 53.2116 87.8266 53.0456 87.2654 52.7017L86.2183 54.4054C87.0246 54.8996 87.8787 55.1885 88.7714 55.234L88.8741 53.2378ZM87.2608 52.6988C85.6063 51.6971 83.9692 50.8562 82.3495 50.1788L81.576 52.0226C83.0949 52.6578 84.6438 53.4521 86.2229 54.4082L87.2608 52.6988ZM82.3495 50.1788C80.6363 49.4623 78.4795 49.0581 75.9189 48.9277L75.8163 50.924C78.244 51.0475 80.1507 51.4265 81.576 52.0226L82.3495 50.1788ZM75.9189 48.9277C70.1557 48.6344 65.4385 50.0593 61.897 53.3178L63.2526 54.7877C66.307 51.9773 70.4517 50.6509 75.8163 50.924L75.9189 48.9277ZM61.8895 53.3248C58.4382 56.5666 56.6042 60.8987 56.3303 66.224L58.3289 66.3257C58.5806 61.4302 60.2434 57.6143 63.2601 54.7807L61.8895 53.3248ZM56.3303 66.224C56.0565 71.5492 57.4365 76.0449 60.5373 79.6202L62.0501 78.3111C59.3398 75.186 58.0771 71.2211 58.3289 66.3257L56.3303 66.224ZM60.5441 79.6279C63.7328 83.229 68.2792 85.1254 74.0424 85.4187L74.1451 83.4225C68.7805 83.1494 64.7935 81.4092 62.0433 78.3033L60.5441 79.6279ZM74.0424 85.4187C76.603 85.549 78.79 85.3659 80.5678 84.827L79.9874 82.9144C78.5084 83.3626 76.5728 83.546 74.1451 83.4225L74.0424 85.4187ZM80.6011 84.8163C82.261 84.2493 83.9554 83.5874 85.6843 82.8314L84.8824 81.0004C83.2003 81.736 81.5576 82.3773 79.9541 82.9251L80.6011 84.8163ZM85.7168 82.8165C86.3103 82.5313 86.8578 82.4203 87.372 82.4465L87.4747 80.4503C86.582 80.4048 85.7027 80.6055 84.8499 81.0153L85.7168 82.8165ZM87.372 82.4465C88.0805 82.4826 88.6579 82.7822 89.1534 83.4318L90.7454 82.22C89.9193 81.1371 88.8128 80.5184 87.4747 80.4503L87.372 82.4465ZM89.1534 83.4318C89.7031 84.1523 89.9037 84.8058 89.8723 85.4158L91.8709 85.5175C91.9315 84.339 91.5173 83.2319 90.7454 82.22L89.1534 83.4318ZM89.8723 85.4158C89.8191 86.4508 89.3371 87.2454 88.279 87.8581L89.2821 89.5873C90.8675 88.6693 91.7796 87.2933 91.8709 85.5175L89.8723 85.4158ZM88.2851 87.8546C86.7069 88.7536 84.6392 89.6462 82.064 90.5259L82.7109 92.4171C85.3571 91.5131 87.5514 90.5732 89.276 89.5908L88.2851 87.8546ZM82.0556 90.5288C79.6704 91.3672 76.6502 91.7159 72.9588 91.528L72.8562 93.5242C76.7112 93.7204 80.011 93.3661 82.7192 92.4142L82.0556 90.5288Z" fill="#582FFF" mask="url(#path-1-outside-1_739_36)"/>
<rect x="60.8618" y="87.4729" width="9.74627" height="22.6958" rx="4.87025" fill="#582FFF" stroke="#582FFF"/>
<rect x="76.0903" y="87.8042" width="9.74627" height="22.6958" rx="4.87025" fill="#582FFF" stroke="#582FFF"/>
</svg>
