<svg width="140" height="140" viewBox="0 0 140 140" fill="none" xmlns="http://www.w3.org/2000/svg">
<rect width="140" height="140" fill="#582FFF"/>
<path d="M73.4148 86.8763C68.0651 86.604 63.1521 85.1843 58.6759 82.6173C54.2035 79.975 50.6875 76.3627 48.128 71.7804C45.5723 67.1229 44.4551 61.6707 44.7763 55.4241C45.1014 49.1021 46.772 43.7919 49.7883 39.4934C52.8045 35.1949 56.6707 31.9961 61.3869 29.8969C66.107 27.7225 71.1419 26.7714 76.4917 27.0437C80.9372 27.27 84.5983 28.06 87.475 29.4138C90.4308 30.6961 92.8177 32.0249 94.6356 33.4002C96.0923 34.4553 96.778 35.8107 96.6929 37.4665C96.6387 38.5201 96.1721 39.5151 95.2929 40.4513C94.4138 41.3875 93.3714 41.8249 92.1658 41.7635C91.337 41.7213 90.5198 41.4534 89.7142 40.9596C87.8093 39.8063 85.9324 38.843 84.0836 38.0697C82.2347 37.2965 79.841 36.8351 76.9024 36.6855C70.3471 36.3519 65.1267 37.9726 61.2411 41.5478C57.4309 45.1267 55.3709 49.9267 55.0613 55.9476C54.7517 61.9684 56.3085 66.9525 59.7317 70.8996C63.2303 74.8506 68.2572 76.9929 74.8125 77.3265C77.7511 77.4761 80.1796 77.2601 82.0981 76.6787C84.0206 76.0219 85.9864 75.2542 87.9958 74.3755C88.8479 73.9662 89.6883 73.7826 90.5171 73.8247C91.7227 73.8861 92.7148 74.4271 93.4933 75.4477C94.2718 76.4682 94.634 77.5054 94.5798 78.559C94.4946 80.2147 93.6734 81.4935 92.1161 82.3952C90.1705 83.5035 87.6598 84.583 84.5839 85.6338C81.5834 86.6884 77.8604 87.1026 73.4148 86.8763Z" fill="white"/>
<path fill-rule="evenodd" clip-rule="evenodd" d="M58.0752 83.6309L58.0753 83.6308C53.4214 80.8813 49.7583 77.1165 47.0983 72.3544L47.094 72.3467L47.094 72.3467C44.4159 67.466 43.2684 61.7896 43.5989 55.3642C43.933 48.8671 45.6554 43.3319 48.8229 38.8179C51.958 34.35 55.9885 31.0123 60.9004 28.8246C65.7972 26.5701 71.0205 25.5862 76.552 25.8678C81.0858 26.0985 84.9049 26.9061 87.9612 28.3408C90.9584 29.6421 93.4265 31.0098 95.338 32.4542C97.0786 33.7191 97.9775 35.4383 97.8701 37.5264C97.7987 38.915 97.1795 40.163 96.1525 41.2566C95.0535 42.427 93.6818 43.0197 92.1053 42.9395C91.0546 42.886 90.0494 42.5463 89.1002 41.9651C87.2407 40.8393 85.4165 39.904 83.6278 39.1559C81.9485 38.4536 79.7021 38.0071 76.8418 37.8615C70.5239 37.5399 65.6421 39.1013 62.0439 42.4096C58.4925 45.7477 56.535 50.2422 56.2385 56.0075C55.9421 61.7728 57.4283 66.4426 60.6188 70.1238C63.8588 73.7802 68.555 75.829 74.8728 76.1506C77.7226 76.2956 79.9968 76.0817 81.7368 75.5578C83.6138 74.9159 85.5365 74.1652 87.5049 73.305C88.5035 72.8286 89.5326 72.5956 90.5775 72.6488C92.154 72.729 93.4578 73.458 94.431 74.7338C95.3404 75.926 95.8284 77.2304 95.757 78.6189C95.6494 80.711 94.5749 82.3322 92.707 83.4138L92.6998 83.418C90.6688 84.5748 88.085 85.6818 84.9693 86.7464C81.7795 87.8664 77.8936 88.2833 73.3543 88.0522C67.8264 87.7709 62.7318 86.3014 58.0885 83.6385L58.0752 83.6309ZM87.9957 74.3755C85.9863 75.2542 84.0205 76.0219 82.098 76.6787C80.1795 77.2601 77.751 77.4761 74.8124 77.3265C68.2571 76.9929 63.2302 74.8506 59.7316 70.8996C56.3084 66.9525 54.7516 61.9684 55.0612 55.9476C55.3708 49.9267 57.4308 45.1268 61.241 41.5478C65.1266 37.9726 70.347 36.3519 76.9023 36.6856C79.8409 36.8351 82.2346 37.2965 84.0835 38.0697C85.9323 38.843 87.8092 39.8063 89.7141 40.9596C90.5197 41.4534 91.3369 41.7214 92.1657 41.7635C93.3713 41.8249 94.4137 41.3875 95.2928 40.4513C96.172 39.5151 96.6386 38.5201 96.6928 37.4665C96.778 35.8107 96.0922 34.4553 94.6355 33.4002C92.8176 32.0249 90.4307 30.6961 87.4749 29.4138C84.5982 28.06 80.9371 27.27 76.4916 27.0437C71.1418 26.7715 66.1069 27.7225 61.3868 29.8969C56.6706 31.9961 52.8044 35.1949 49.7882 39.4934C46.7719 43.7919 45.1013 49.1021 44.7762 55.4241C44.455 61.6707 45.5722 67.1229 48.1279 71.7804C50.6874 76.3627 54.2034 79.975 58.6758 82.6173C63.152 85.1843 68.065 86.604 73.4147 86.8763C77.8603 87.1026 81.5833 86.6884 84.5838 85.6338C87.6597 84.583 90.1704 83.5035 92.116 82.3952C93.6733 81.4935 94.4945 80.2148 94.5797 78.559C94.6339 77.5054 94.2717 76.4682 93.4932 75.4477C92.7146 74.4271 91.7226 73.8861 90.517 73.8248C89.6882 73.7826 88.8478 73.9662 87.9957 74.3755Z" fill="white"/>
<path d="M60.6389 84.0635C60.6389 81.4642 62.7489 79.357 65.3516 79.357C67.9544 79.357 70.0643 81.4642 70.0643 84.0634L70.0643 98.0311C70.0643 100.63 67.9544 102.738 65.3516 102.738C62.7489 102.738 60.6389 100.63 60.6389 98.0311L60.6389 84.0635Z" fill="white"/>
<path fill-rule="evenodd" clip-rule="evenodd" d="M71.2431 84.0634L71.2431 98.0311C71.2431 101.281 68.6053 103.915 65.3514 103.915C62.0975 103.915 59.4597 101.281 59.4597 98.0311L59.4597 84.0634C59.4597 80.8139 62.0975 78.1796 65.3514 78.1796C68.6053 78.1796 71.2431 80.8139 71.2431 84.0634ZM65.3514 79.357C62.7486 79.357 60.6387 81.4642 60.6387 84.0634L60.6387 98.0311C60.6387 100.63 62.7486 102.738 65.3514 102.738C67.9541 102.738 70.0641 100.63 70.0641 98.0311L70.0641 84.0634C70.0641 81.4641 67.9541 79.357 65.3514 79.357Z" fill="white"/>
<path d="M77.05 84.4205C77.05 81.8212 79.16 79.714 81.7628 79.714C84.3655 79.714 86.4755 81.8212 86.4755 84.4205L86.4755 98.3881C86.4755 100.987 84.3655 103.095 81.7628 103.095C79.16 103.095 77.05 100.987 77.05 98.3881L77.05 84.4205Z" fill="white"/>
<path fill-rule="evenodd" clip-rule="evenodd" d="M87.6542 84.4205L87.6542 98.3881C87.6542 101.638 85.0164 104.272 81.7625 104.272C78.5086 104.272 75.8708 101.638 75.8708 98.3881L75.8708 84.4205C75.8708 81.1709 78.5086 78.5367 81.7625 78.5367C85.0164 78.5367 87.6542 81.1709 87.6542 84.4205ZM81.7625 79.714C79.1598 79.714 77.0498 81.8212 77.0498 84.4205L77.0498 98.3881C77.0498 100.987 79.1598 103.095 81.7625 103.095C84.3653 103.095 86.4752 100.987 86.4752 98.3881L86.4752 84.4205C86.4752 81.8212 84.3653 79.714 81.7625 79.714Z" fill="white"/>
</svg>
